<?xml version="1.0" encoding="UTF-8"?>
<svg width="309px" height="52px" viewBox="0 0 309 52" version="1.1" xmlns="http://www.w3.org/2000/svg" xmlns:xlink="http://www.w3.org/1999/xlink">
    <!-- Generator: Sketch 61.2 (89653) - https://sketch.com -->
    <title>VHorizontal con tagline positivo</title>
    <desc>Created with Sketch.</desc>
    <g id="Page-1" stroke="none" stroke-width="1" fill="none" fill-rule="evenodd">
        <g id="home-header-blanco" transform="translate(-120.000000, -26.000000)" fill-rule="nonzero">
            <g id="VHorizontal-con-tagline-positivo" transform="translate(120.000000, 26.000000)">
                <path d="M75.7758588,40.961995 C75.7495143,40.9172061 75.7183543,40.8754596 75.6829393,40.8375062 C75.2978765,40.3860831 74.6480817,40.2729101 74.1342808,40.5677805 C71.9120291,41.8462868 69.61982,42.9979057 67.2685616,44.0171571 C67.1136957,43.4050873 66.9433433,42.7982045 66.7523421,42.2016958 C66.6322888,41.8232629 66.3383569,41.5259865 65.9625263,41.4028928 C65.5873324,41.2817968 65.1771833,41.3472742 64.8578166,41.5792519 C62.7731931,43.1074416 60.5506127,44.4359446 58.219234,45.5473317 C60.695202,43.4632218 62.7913482,40.9620717 64.4138678,38.1558105 C65.3743877,36.4812633 66.1564833,34.7096042 66.7471799,32.8702244 L66.7471799,32.8702244 C68.0039158,28.9741182 68.3864715,24.8467294 67.8673762,20.7844389 L69.317953,20.8881796 L68.5487859,17.6151621 C67.1075548,11.5995007 63.7990704,6.20052513 59.1019693,2.19930175 L56.5208718,0.0207481297 L55.2303231,3.13296758 C53.7116519,6.7941379 53.9866761,10.9586153 55.9734823,14.386049 C57.9602885,17.8134828 61.4296409,20.1084187 65.3482251,20.5873317 C65.5297208,21.8221333 65.6211631,23.068612 65.6218214,24.316808 C65.6250745,26.9695267 65.2104092,29.6060422 64.393219,32.1284788 L64.393219,32.1284788 C64.0644139,33.1342501 63.6730367,34.1182671 63.2214008,35.0747132 C58.0740475,27.5668039 49.5810784,23.0828829 40.5077433,23.0828829 C31.4344081,23.0828829 22.9414391,27.5668039 17.7940858,35.0747132 C17.3389274,34.1198161 16.947458,33.1355672 16.6222675,32.1284788 L16.6222675,32.1284788 C15.8050774,29.6060422 15.3904121,26.9695267 15.3936652,24.316808 C15.3943235,23.068612 15.4857658,21.8221333 15.6672615,20.5873317 C19.5960092,20.1176636 23.0776808,17.8226189 25.0710348,14.3885623 C27.0643888,10.9545056 27.3383455,6.77953019 25.8109744,3.11221945 L24.5152635,0 L21.9341661,2.17855362 C17.2311619,6.17521295 13.9169445,11.5728757 12.4718629,17.5892269 L11.7026958,20.8622444 L13.1532726,20.7585037 C12.9958548,21.9311906 12.9130914,23.1127782 12.9054872,24.2960599 C12.9089052,27.2091091 13.3723841,30.1031571 14.2786311,32.8702244 C14.8682067,34.7117213 15.6539744,36.4838573 16.6222675,38.1558105 C18.2460767,40.9611599 20.342047,43.4621001 22.8169014,45.5473317 C20.4861614,44.4347413 18.2636898,43.1063034 16.1783188,41.5792519 C15.8592801,41.3454456 15.4478444,41.2799738 15.0725203,41.403286 C14.6971963,41.5265983 14.4037337,41.8236635 14.2837933,42.2016958 C14.092792,42.7982045 13.9172774,43.4050873 13.7675738,44.0171571 C11.4272017,43.0077124 9.145332,41.8664833 6.93282774,40.5989027 C6.43295188,40.2860196 5.78216303,40.3753886 5.38416927,40.8115711 L5.29124976,40.9256858 C3.15157415,43.8219723 1.37448715,46.9716624 0,50.3038404 L2.27652795,51.2478803 C3.43113858,48.4345185 4.89050745,45.7574425 6.62825824,43.2650374 C8.78026761,44.4557052 10.9927008,45.5326169 13.2565165,46.4913716 C13.0382031,47.9090245 12.9277563,49.3413369 12.926136,50.7758603 L15.388503,50.7758603 C15.3890501,49.160313 15.5428913,47.548498 15.8479383,45.9622943 C15.9356956,45.5058354 16.0389395,45.0441895 16.1525078,44.5877307 C19.0287359,46.5240311 22.123634,48.1102673 25.3721879,49.3131172 C25.5270537,49.5776559 25.6819196,49.8318204 25.8419476,50.085985 C26.1614193,50.5890155 26.5060057,51.0754889 26.8743866,51.5435411 L28.8050475,49.9874314 C28.5469377,49.6606484 28.3198012,49.3546135 28.1081512,49.0433915 C31.7229653,50.8820383 35.6987625,51.8918424 39.7489006,52 L41.240775,52 C45.2914796,51.8974419 49.2690599,50.8929476 52.8866866,49.0589526 C52.6801988,49.3649875 52.4530623,49.6762095 52.1949525,50.0029925 L54.1204512,51.5591022 C54.4890357,51.0947928 54.8336362,50.6117621 55.1528902,50.1119202 C55.3180804,49.8525686 55.4781085,49.593217 55.6278121,49.3286783 C58.8784874,48.1269688 61.9752258,46.5406776 64.8526544,44.6032918 C64.9662227,45.0597506 65.0643044,45.5213965 65.1520617,45.9778554 C65.4571087,47.5640591 65.6109499,49.1758741 65.611497,50.7914214 L68.073864,50.7914214 C68.0748271,49.3567973 67.9643649,47.9242852 67.7434835,46.5069327 C70.0083614,45.5486068 72.2209063,44.4699092 74.3717418,43.2754115 C76.1103403,45.7700104 77.5713747,48.4487055 78.7286342,51.2634414 L81,50.3194015 C79.6451553,46.9977492 77.8907265,43.8552416 75.7758588,40.961995 Z M41.189153,49.5257855 L39.8469823,49.5257855 C34.8177847,49.4045885 29.9427535,47.7572937 25.8625964,44.800399 C23.1664129,42.8453078 20.8777202,40.3781918 19.1259321,37.5385536 C23.7025486,30.0845685 31.7964565,25.5459713 40.5129055,25.5459713 C49.2293545,25.5459713 57.3232624,30.0845685 61.8998789,37.5385536 C60.1556774,40.3757824 57.8759094,42.8427298 55.1890256,44.800399 L55.1890256,44.800399 C51.0994681,47.7617807 46.2132119,49.4092197 41.1736664,49.5257855 L41.189153,49.5257855 Z" id="Shape" fill="#1B9F90"></path>
                <path d="M117.897047,32.7287561 C117.453194,33.1868181 116.945537,33.5786047 116.389735,33.8920307 C115.859701,34.1945472 115.288194,34.4180037 114.693371,34.5553013 C114.132815,34.6908224 113.558419,34.7610191 112.981678,34.7644867 C111.959386,34.7751615 110.949666,34.5388535 110.038589,34.0757056 C109.151044,33.6230782 108.362508,32.9987187 107.718862,32.2389562 C107.051516,31.454379 106.532163,30.5554795 106.186002,29.5858737 C105.821655,28.5711687 105.638342,27.5005218 105.644392,26.4225831 C105.646357,25.4248762 105.803209,24.4335039 106.109359,23.483784 C106.404236,22.5241779 106.869826,21.6254648 107.483823,20.8307015 C108.090462,20.0412172 108.860864,19.3920288 109.742236,18.927625 C110.714854,18.4364114 111.795138,18.1961136 112.884597,18.2286399 C113.444132,18.2327557 114.00196,18.2908492 114.550304,18.4021106 C115.13019,18.5218356 115.690727,18.7209997 116.216011,18.9939521 C116.764004,19.2863099 117.260955,19.6653713 117.687556,20.1164101 C118.164931,20.6227826 118.553572,21.2057561 118.8372,21.8409137 L121.657661,19.9531435 C120.901591,18.4763427 119.747863,17.2394831 118.326247,16.3816863 C116.721897,15.427915 114.878709,14.9500925 113.012335,15.0041242 C111.410603,14.9775731 109.823897,15.3160888 108.372882,15.9939281 C107.052455,16.6166112 105.870882,17.4980289 104.898401,18.5857856 C103.953744,19.6526828 103.220336,20.8888285 102.737069,22.2286719 C101.733604,24.9229495 101.755422,27.8912956 102.798384,30.5705755 C103.317637,31.9403494 104.077207,33.2067572 105.041468,34.3104014 C106.003231,35.4081472 107.164918,36.3136348 108.464853,36.9787901 C109.821725,37.6687859 111.326269,38.0189842 112.84883,37.9992065 C113.77283,37.9958455 114.692813,37.8775875 115.587539,37.6471628 C116.507531,37.4192373 117.395073,37.0763949 118.229166,36.6267465 C119.049884,36.1865501 119.803476,35.6316296 120.467141,34.9787741 C121.121606,34.3369745 121.642546,33.572309 122,32.7287561 L119.021144,31.0348649 C118.747499,31.6602315 118.367147,32.2333812 117.897047,32.7287561 Z" id="Path" fill="#0D1321"></path>
                <path d="M141.089985,15 L137.976052,15 L129,38 L132.78447,38 L135.141509,31.7484263 L143.858491,31.7484263 L146.246009,38 L150,38 L141.089985,15 Z M135.776488,29.0595773 L139.530479,19.1883993 L143.157475,29.0699191 L135.776488,29.0595773 Z" id="Shape" fill="#0D1321"></path>
                <polygon id="Path" fill="#0D1321" points="175 34.7940647 162.637306 34.7940647 162.637306 15 159 15 159 38 175 38"></polygon>
                <path d="M195.089985,15 L191.970972,15 L183,38 L186.78447,38 L189.141509,31.7484263 L197.858491,31.7484263 L200.246009,38 L204,38 L195.089985,15 Z M189.776488,29.0595773 L193.540639,19.1883993 L197.167634,29.0699191 L189.776488,29.0595773 Z" id="Shape" fill="#0D1321"></path>
                <polygon id="Path" fill="#0D1321" points="216.629946 21.4480665 223.496853 33.9822392 225.503147 33.9822392 232.339029 21.4480665 232.339029 38 236 38 236 15 232.111511 15 224.5 29.0595773 216.888489 15 213 15 213 38 216.629946 38"></polygon>
                <path d="M252.145969,31.7484263 L260.869281,31.7484263 L263.243282,38 L267,38 L258.098765,15 L254.982571,15 L246,38 L249.792302,38 L252.145969,31.7484263 Z M256.54321,19.1883993 L260.193174,29.0595773 L252.781409,29.0595773 L256.54321,19.1883993 Z" id="Shape" fill="#0D1321"></path>
                <path d="M294,38 L288.603611,29.2510156 C289.273222,29.0388624 289.897729,28.7039836 290.4454,28.2633938 C291.004284,27.8308936 291.485773,27.3063471 291.869304,26.7121554 C292.267517,26.0952802 292.576684,25.425058 292.787618,24.7213995 C293.006267,23.9953943 293.115809,23.2407978 293.11264,22.4824455 C293.116528,21.546008 292.941403,20.6174928 292.596733,19.7470952 C292.250369,18.8673256 291.752716,18.0552704 291.126397,17.3478465 C290.491815,16.6434373 289.728212,16.0676778 288.877042,15.6518259 C287.988246,15.21371 287.009341,14.9905648 286.018917,15.0003057 L276,15.0003057 L276,38 L279.61135,38 L279.61135,30.0007808 L284.909716,30.0007808 L289.88822,38 L294,38 Z M287.360275,26.4536157 C286.927471,26.6802952 286.445305,26.7957805 285.957008,26.7897174 L279.621668,26.7897174 L279.621668,18.2061984 L285.760963,18.2061984 C286.239235,18.2068158 286.71019,18.3239349 287.133276,18.5474708 C287.578061,18.7774082 287.974045,19.0917544 288.299226,19.473043 C288.64343,19.8766597 288.915684,20.336694 289.104041,20.832962 C289.31161,21.3578637 289.416694,21.917828 289.413653,22.4824455 C289.416432,23.0442733 289.329341,23.6029213 289.155632,24.1370997 C288.992897,24.6306462 288.752552,25.0949723 288.44368,25.5125311 C288.15555,25.901855 287.785725,26.223098 287.360275,26.4536157 Z" id="Shape" fill="#0D1321"></path>
                <polygon id="Path" fill="#0D1321" points="309 8 305.758621 8 304 11.3325272 306.221675 12"></polygon>
                <rect id="Rectangle" fill="#0D1321" x="304" y="15" width="4" height="23"></rect>
            </g>
        </g>
    </g>
</svg>