<?xml version="1.0" encoding="UTF-8"?>
<svg width="78px" height="50px" viewBox="0 0 78 50" version="1.1" xmlns="http://www.w3.org/2000/svg" xmlns:xlink="http://www.w3.org/1999/xlink">
    <!-- Generator: Sketch 61.2 (89653) - https://sketch.com -->
    <title>Símbolo negativo</title>
    <desc>Created with Sketch.</desc>
    <g id="Page-1" stroke="none" stroke-width="1" fill="none" fill-rule="evenodd">
        <g id="home-header-blanco" transform="translate(-681.000000, -810.000000)" fill="#FFFFFF" fill-rule="nonzero">
            <g id="Group-3" transform="translate(0.000000, 786.000000)">
                <g id="Símbolo-negativo" transform="translate(681.000000, 24.000000)">
                    <path d="M72.9422432,39.3700787 C72.9176159,39.3267246 72.8876654,39.2866438 72.8530936,39.2507755 C72.4836864,38.8186142 71.8614851,38.7087041 71.3672661,38.9883083 C69.2371235,40.2334115 67.0385534,41.3566543 64.7820786,42.3526605 C64.6334959,41.7561441 64.4670832,41.1596278 64.2828406,40.6048676 C64.1810926,40.2176783 63.8925999,39.9075444 63.5147122,39.7791182 C63.1368245,39.6506921 62.719948,39.7211044 62.4047546,39.9665951 C60.3971228,41.4327877 58.2582677,42.7088377 56.0156964,43.7783345 C58.3903621,41.7720684 60.4011419,39.3684239 61.9590064,36.6738249 C62.887475,35.0639781 63.644468,33.3604794 64.2174642,31.5915056 L64.2174642,31.5915056 C65.0794417,28.9292414 65.5167182,26.1469563 65.5131058,23.3476497 C65.5134628,22.2108689 65.4419997,21.0752093 65.2991466,19.9475066 L66.6958244,20.0429492 L65.9707406,16.9172035 C64.5894229,11.1332481 61.4085705,5.94117826 56.889363,2.09377237 L54.4169461,0 L53.1747943,2.98258172 C51.7153159,6.50361569 51.9813035,10.5072208 53.8936434,13.8025909 C55.8059832,17.0979609 59.1443788,19.3054776 62.9158793,19.7685517 C63.0892254,20.9536611 63.1766237,22.1498375 63.1773849,23.3476497 C63.1778528,25.8982498 62.7766832,28.4328977 61.988723,30.8577905 L61.988723,30.8577905 C61.6736806,31.825762 61.2964808,32.7722288 60.8594941,33.6912431 C55.9055511,26.4681541 47.7279605,22.1537689 38.991085,22.1537689 C30.2542096,22.1537689 22.076619,26.4681541 17.122676,33.6912431 C16.6831454,32.7713043 16.3058811,31.8226826 15.9934471,30.8518253 L15.9934471,30.8518253 C15.2054868,28.4269325 14.8043173,25.8922846 14.8047851,23.3416846 C14.8055464,22.1438724 14.8929446,20.9476959 15.0662908,19.7625865 C18.838379,19.3022958 22.1785827,17.0970155 24.0932966,13.8027467 C26.0080106,10.5084779 26.276635,6.50476338 24.8192624,2.98258172 L23.5771106,0 L21.1046937,2.09377237 C16.5788913,5.9385846 13.391619,11.1309391 12.0054861,16.9172035 L11.2922889,20.0608447 L12.6889668,19.9654021 C12.5461137,21.0931047 12.4746506,22.2287644 12.4750076,23.3655452 C12.4716383,28.045551 13.7019224,32.6431525 16.0409936,36.6917204 C17.5988581,39.3863194 19.6096379,41.7899639 21.9843036,43.79623 C19.7307871,42.7226624 17.5818974,41.4405699 15.5655288,39.9665951 C15.2578988,39.7440718 14.8629491,39.6822164 14.5023973,39.8000919 C14.1418454,39.9179673 13.8589639,40.2014265 13.7409326,40.5631114 C13.55669,41.1596278 13.3902774,41.7203531 13.2416946,42.3109043 C11.0015465,41.339676 8.81874785,40.2402804 6.70405364,39.0181341 C6.21674069,38.712261 5.58118302,38.8001599 5.19445291,39.2269148 C5.15978668,39.2604923 5.12979894,39.2986165 5.10530326,39.3402529 C3.03887082,42.127775 1.32407219,45.1612457 0,48.3715104 L2.19308138,49.2782152 C3.30215593,46.5713039 4.70745493,43.9964527 6.3831149,41.6010499 C8.45275331,42.7580642 10.5813978,43.8053932 12.7602865,44.7387258 C12.5513584,46.1007008 12.4460555,47.4766654 12.4452911,48.8546886 L14.8226151,48.8546886 C14.8231967,47.3012198 14.9704566,45.751302 15.26242,44.2257218 C15.3456263,43.7842997 15.4466626,43.3428776 15.5536422,42.9014555 C18.3218867,44.7556511 21.3007444,46.2715833 24.427004,47.4170842 C24.5696434,47.6735863 24.7241695,47.9241231 24.8786955,48.1627297 C25.1699177,48.6160821 25.4730265,49.0753997 25.8831149,49.5645431 L27.7374276,48.0851825 C27.4878086,47.7690289 27.2679061,47.4886662 27.0717769,47.1784777 C30.5534305,48.9416549 34.3822581,49.9054378 38.2808595,50 L39.7131972,50 C43.6135997,49.9047306 47.4442097,48.94101 50.9282231,47.1784777 C50.7261506,47.4707707 50.5062481,47.774994 50.2566291,48.0851825 L52.1109418,49.5645431 C52.4670703,49.116506 52.800324,48.6506245 53.1094179,48.1686948 C53.2698872,47.9241231 53.4244133,47.6735863 53.5670527,47.4170842 C56.6967709,46.2626084 59.677704,44.7366223 62.4463578,42.8716297 C62.5533374,43.3130518 62.6543737,43.7544739 62.73758,44.195896 C63.0295434,45.7214762 63.1768033,47.271394 63.1773849,48.8248628 L65.5547089,48.8248628 C65.5539445,47.4468396 65.4486416,46.070875 65.2397135,44.7089 C67.4174868,43.784184 69.5460637,42.7468435 71.6168851,41.6010499 C73.2925451,43.9964527 74.6978441,46.5713039 75.8069186,49.2782152 L78,48.3715104 C76.6877849,45.1744361 74.9891383,42.151307 72.9422432,39.3700787 L72.9422432,39.3700787 Z M39.6597074,47.6079695 L38.3581225,47.6079695 C33.5164418,47.4925799 28.8231552,45.9078407 24.8965254,43.0625149 C22.3050067,41.1858451 20.1059646,38.8165774 18.4242609,36.0892388 C22.8257999,28.9183197 30.6172795,24.5509854 39.008915,24.5509854 C47.4005504,24.5509854 55.19203,28.9183197 59.593569,36.0892388 C57.9051416,38.8240141 55.6980294,41.1993543 53.0975312,43.0804104 L53.0975312,43.0804104 C49.1709015,45.9257362 44.4776149,47.5104754 39.6359342,47.6258649 L39.6597074,47.6079695 Z" id="Shape"></path>
                </g>
            </g>
        </g>
    </g>
</svg>