<svg xmlns="http://www.w3.org/2000/svg" viewBox="0 0 599.11 115.81"><defs><style>.cls-1{fill:#1b9f90;}.cls-2{fill:#fff;}</style></defs><title>VHorizontal con tagline negativo 2</title><g id="Capa_2" data-name="Capa 2"><g id="Capa_1-2" data-name="Capa 1"><path class="cls-1" d="M146.79,91.9a1.37,1.37,0,0,0-.18-.24,2.39,2.39,0,0,0-3-.52,132,132,0,0,1-13.3,6.65c-.3-1.18-.63-2.35-1-3.5a2.38,2.38,0,0,0-1.53-1.54,2.4,2.4,0,0,0-2.14.34,80,80,0,0,1-12.86,7.65,53.93,53.93,0,0,0,12-14.25A53,53,0,0,0,129.3,76.3h0A53.48,53.48,0,0,0,131.47,53l2.81.2-1.49-6.31a56.21,56.21,0,0,0-18.3-29.72l-5-4.2-2.5,6a24.43,24.43,0,0,0,19.6,33.65,49.39,49.39,0,0,1,.53,7.19,48.46,48.46,0,0,1-2.38,15.06h0a48.72,48.72,0,0,1-2.27,5.68,53.43,53.43,0,0,0-88,0,46.05,46.05,0,0,1-2.27-5.68h0a48.46,48.46,0,0,1-2.38-15.06,49.39,49.39,0,0,1,.53-7.19A24.43,24.43,0,0,0,50,18.93l-2.51-6-5,4.2A56.17,56.17,0,0,0,24.16,46.84l-1.49,6.31,2.81-.2A53.61,53.61,0,0,0,25,59.77,53.08,53.08,0,0,0,27.66,76.3,51.8,51.8,0,0,0,32.2,86.49a54.08,54.08,0,0,0,12,14.25,80.45,80.45,0,0,1-12.86-7.65,2.38,2.38,0,0,0-3.67,1.2c-.37,1.15-.71,2.32-1,3.5A131.26,131.26,0,0,1,13.43,91.2a2.37,2.37,0,0,0-3,.41l-.18.22A84.82,84.82,0,0,0,0,109.91l4.41,1.82a79.93,79.93,0,0,1,8.43-15.39,136.67,136.67,0,0,0,12.84,6.22,54.42,54.42,0,0,0-.64,8.26h4.77a49,49,0,0,1,.89-9.28c.17-.88.37-1.77.59-2.65A84.71,84.71,0,0,0,49.15,108c.3.51.6,1,.91,1.49a34.12,34.12,0,0,0,2,2.81l3.74-3c-.5-.63-.94-1.22-1.35-1.82A53.05,53.05,0,0,0,77,113.18h2.89a53.05,53.05,0,0,0,22.56-5.67c-.4.59-.84,1.19-1.34,1.82l3.73,3a33.43,33.43,0,0,0,2-2.79c.32-.5.63-1,.92-1.51a84.54,84.54,0,0,0,17.87-9.11c.22.88.41,1.77.58,2.65a49,49,0,0,1,.89,9.28h4.77a53.16,53.16,0,0,0-.64-8.26,134.25,134.25,0,0,0,12.84-6.23,80.29,80.29,0,0,1,8.44,15.4l4.4-1.82A84.8,84.8,0,0,0,146.79,91.9Zm-67,16.51H77.19A48.29,48.29,0,0,1,50.1,99.3a49.29,49.29,0,0,1-13.05-14,48.68,48.68,0,0,1,82.86,0,49.29,49.29,0,0,1-13,14h0A48.34,48.34,0,0,1,79.76,108.41Z"/><path class="cls-2" d="M227.44,47.42a13,13,0,0,1-2.95,2.28A12.25,12.25,0,0,1,221.17,51a14.61,14.61,0,0,1-3.35.41,12.41,12.41,0,0,1-5.76-1.35,14.71,14.71,0,0,1-4.54-3.6,16.69,16.69,0,0,1-3-5.2,18.07,18.07,0,0,1-1.06-6.2,18.92,18.92,0,0,1,.91-5.76,16.38,16.38,0,0,1,2.69-5.2,13.53,13.53,0,0,1,4.42-3.73A12.78,12.78,0,0,1,217.63,19a17,17,0,0,1,3.26.34,12.58,12.58,0,0,1,3.26,1.16,11.26,11.26,0,0,1,2.88,2.2,12.15,12.15,0,0,1,2.25,3.38l5.52-3.7a17.47,17.47,0,0,0-6.52-7,19.24,19.24,0,0,0-10.4-2.7,20.62,20.62,0,0,0-9.08,1.94A21.32,21.32,0,0,0,202,19.7a22.07,22.07,0,0,0-4.23,7.14,23,23,0,0,0,.12,16.35,24.16,24.16,0,0,0,4.39,7.33,22.59,22.59,0,0,0,6.7,5.23,18.38,18.38,0,0,0,8.58,2,21.78,21.78,0,0,0,5.36-.69,22.07,22.07,0,0,0,5.17-2,19.16,19.16,0,0,0,4.38-3.23,13.62,13.62,0,0,0,3-4.41l-5.83-3.32A11.55,11.55,0,0,1,227.44,47.42Z"/><path class="cls-2" d="M273.13,12.9H267L249.33,57.38h7.45l4.64-12.09h17.16l4.7,12.09h7.39ZM262.67,40.09,270.06,21l7.14,19.11Z"/><polygon class="cls-2" points="339.59 51.18 315.73 51.18 315.73 12.9 308.71 12.9 308.71 57.38 339.59 57.38 339.59 51.18"/><path class="cls-2" d="M377.05,12.9h-6.14L353.25,57.38h7.45l4.64-12.09H382.5l4.7,12.09h7.39ZM366.59,40.09,374,21l7.14,19.11Z"/><polygon class="cls-2" points="419.65 25.37 432.93 49.61 436.81 49.61 450.03 25.37 450.03 57.38 457.11 57.38 457.11 12.9 449.59 12.9 434.87 40.09 420.15 12.9 412.63 12.9 412.63 57.38 419.65 57.38 419.65 25.37"/><path class="cls-2" d="M487.17,45.29h17.16L509,57.38h7.39L498.88,12.9h-6.13L475.08,57.38h7.46ZM495.82,21,503,40.09H488.42Z"/><path class="cls-2" d="M569.35,57.38,558.89,40.46a11,11,0,0,0,3.57-1.91,12.08,12.08,0,0,0,2.76-3A15.07,15.07,0,0,0,567,31.7a14.77,14.77,0,0,0,.63-4.33,14.18,14.18,0,0,0-1-5.29,15.64,15.64,0,0,0-2.85-4.64,14.34,14.34,0,0,0-4.36-3.28,12.28,12.28,0,0,0-5.54-1.26H534.46V57.38h7V41.91h10.27l9.65,15.47ZM556.48,35.05a5.72,5.72,0,0,1-2.72.65H541.48V19.1h11.9a5.72,5.72,0,0,1,2.66.66,7.49,7.49,0,0,1,2.26,1.79,8.94,8.94,0,0,1,1.56,2.63,8.53,8.53,0,0,1,.6,3.19,10.16,10.16,0,0,1-.5,3.2,9.44,9.44,0,0,1-1.38,2.66A6.41,6.41,0,0,1,556.48,35.05Z"/><polygon class="cls-2" points="599.11 0 592.53 0 588.96 6.89 593.47 8.27 599.11 0"/><rect class="cls-2" x="588.4" y="12.9" width="7.02" height="44.47"/><path class="cls-2" d="M196.33,79.79a8.42,8.42,0,0,1,.51-2.86,7.94,7.94,0,0,1,1.46-2.54,7.65,7.65,0,0,1,2.36-1.82,7,7,0,0,1,3.19-.71,6.52,6.52,0,0,1,3.63,1,6.12,6.12,0,0,1,2.23,2.49l-.94.54a5.42,5.42,0,0,0-1-1.39,5.24,5.24,0,0,0-1.23-.9,5.73,5.73,0,0,0-1.38-.51,6.9,6.9,0,0,0-1.41-.15,5.64,5.64,0,0,0-2.68.61,6.31,6.31,0,0,0-2,1.6,6.82,6.82,0,0,0-1.22,2.23,7.75,7.75,0,0,0-.42,2.49,7.38,7.38,0,0,0,.5,2.69,7.27,7.27,0,0,0,1.34,2.25,6.61,6.61,0,0,0,2,1.55,5.51,5.51,0,0,0,2.51.58,6.43,6.43,0,0,0,1.48-.18,5.25,5.25,0,0,0,1.45-.56,5.65,5.65,0,0,0,1.3-1,4.94,4.94,0,0,0,1-1.4l1,.47a5.15,5.15,0,0,1-1.1,1.59A7,7,0,0,1,207.41,87a7.86,7.86,0,0,1-3.67.94,6.26,6.26,0,0,1-3-.72,8,8,0,0,1-2.34-1.87,8.89,8.89,0,0,1-1.53-2.62A8.54,8.54,0,0,1,196.33,79.79Z"/><path class="cls-2" d="M215.4,88.06a3.89,3.89,0,0,1-1.5-.28,3.81,3.81,0,0,1-1.22-.76,3.46,3.46,0,0,1-.82-1.14,3.53,3.53,0,0,1-.29-1.42,2.77,2.77,0,0,1,.36-1.39,3.61,3.61,0,0,1,1-1.08,5.1,5.1,0,0,1,1.54-.72,7.13,7.13,0,0,1,2-.25,11.13,11.13,0,0,1,1.89.16,10.58,10.58,0,0,1,1.71.46V80.5a3.62,3.62,0,0,0-.94-2.63,3.38,3.38,0,0,0-2.55-1,5.06,5.06,0,0,0-1.8.36,9.15,9.15,0,0,0-1.94,1l-.42-.76A7.61,7.61,0,0,1,216.63,76a4.47,4.47,0,0,1,3.31,1.22,4.62,4.62,0,0,1,1.21,3.37v5.68c0,.38.16.56.49.56v1a.93.93,0,0,1-.24,0l-.21,0a.91.91,0,0,1-.71-.31,1.25,1.25,0,0,1-.32-.72v-1a5.16,5.16,0,0,1-2.06,1.62A6.55,6.55,0,0,1,215.4,88.06Zm.22-.89a5.63,5.63,0,0,0,2.38-.49,4,4,0,0,0,1.67-1.3,1.48,1.48,0,0,0,.36-.9v-2a8.71,8.71,0,0,0-1.68-.47,9.75,9.75,0,0,0-1.81-.16A6.08,6.08,0,0,0,215,82a4.08,4.08,0,0,0-1.23.53,2.47,2.47,0,0,0-.8.81,2.15,2.15,0,0,0-.28,1.06,2.71,2.71,0,0,0,.23,1.1,2.79,2.79,0,0,0,.62.89,3.08,3.08,0,0,0,1,.58A3.2,3.2,0,0,0,215.62,87.17Z"/><path class="cls-2" d="M229.65,87.28l-.3.17a2.82,2.82,0,0,1-.54.23,5.82,5.82,0,0,1-.73.21,3.94,3.94,0,0,1-.87.09,2.8,2.8,0,0,1-.88-.14,2.07,2.07,0,0,1-.73-.4,2,2,0,0,1-.49-.65,2.06,2.06,0,0,1-.18-.9V77.12H223.3v-.91h1.63v-4h1.12v4h2.7v.91h-2.7v8.51a1.14,1.14,0,0,0,.44,1,1.66,1.66,0,0,0,1,.32,2.79,2.79,0,0,0,1.2-.23l.61-.3Z"/><path class="cls-2" d="M234.48,88.06a4,4,0,0,1-2.72-1,3.3,3.3,0,0,1-.81-1.14,3.37,3.37,0,0,1-.29-1.42,2.87,2.87,0,0,1,.35-1.39A3.65,3.65,0,0,1,232,82a5.16,5.16,0,0,1,1.53-.72,7.23,7.23,0,0,1,2-.25,11,11,0,0,1,1.89.16,10,10,0,0,1,1.71.46V80.5a3.66,3.66,0,0,0-.93-2.63,3.39,3.39,0,0,0-2.56-1,5.14,5.14,0,0,0-1.8.36,9.09,9.09,0,0,0-1.93,1l-.43-.76A7.61,7.61,0,0,1,235.71,76,4.48,4.48,0,0,1,239,77.22a4.61,4.61,0,0,1,1.2,3.37v5.68c0,.38.17.56.5.56v1a1,1,0,0,1-.24,0l-.21,0a.93.93,0,0,1-.72-.31,1.24,1.24,0,0,1-.31-.72v-1a5.23,5.23,0,0,1-2.06,1.62A6.63,6.63,0,0,1,234.48,88.06Zm.23-.89a5.66,5.66,0,0,0,2.38-.49,4.11,4.11,0,0,0,1.67-1.3,1.47,1.47,0,0,0,.35-.9v-2a8.42,8.42,0,0,0-1.67-.47,9.86,9.86,0,0,0-1.82-.16A6,6,0,0,0,234,82a4.26,4.26,0,0,0-1.24.53,2.44,2.44,0,0,0-.79.81,2.05,2.05,0,0,0-.28,1.06,2.88,2.88,0,0,0,.22,1.1,2.67,2.67,0,0,0,.63.89,3.15,3.15,0,0,0,.95.58A3.29,3.29,0,0,0,234.71,87.17Zm1-13.4-.78-.36,1.36-1.9h1.3Z"/><path class="cls-2" d="M243.72,71.51h1.15v14a1.45,1.45,0,0,0,.36,1,1.38,1.38,0,0,0,1,.38,3.67,3.67,0,0,0,.6-.06,2.9,2.9,0,0,0,.63-.17l.23.9a4.7,4.7,0,0,1-.94.25,5.52,5.52,0,0,1-1,.11,2,2,0,0,1-2.08-2.11Z"/><path class="cls-2" d="M254.31,88.06a5.44,5.44,0,0,1-4.07-1.79,5.91,5.91,0,0,1-1.19-1.92,6.39,6.39,0,0,1-.43-2.3,6.32,6.32,0,0,1,1.64-4.26,5.58,5.58,0,0,1,1.8-1.3,5.14,5.14,0,0,1,2.25-.49,5.06,5.06,0,0,1,2.23.49,5.84,5.84,0,0,1,1.81,1.3,6.28,6.28,0,0,1,1.2,1.93,6.07,6.07,0,0,1,.44,2.33,6,6,0,0,1-.44,2.3,6.27,6.27,0,0,1-1.19,1.92,5.56,5.56,0,0,1-1.8,1.31A5.35,5.35,0,0,1,254.31,88.06Zm-4.57-6A5.23,5.23,0,0,0,250.1,84a5,5,0,0,0,1,1.57,4.63,4.63,0,0,0,1.45,1.07,4.19,4.19,0,0,0,3.53,0,4.69,4.69,0,0,0,1.46-1.09,5.42,5.42,0,0,0,1-1.6,5.25,5.25,0,0,0,.36-2,5.24,5.24,0,0,0-1.34-3.52,4.81,4.81,0,0,0-1.45-1.09,4,4,0,0,0-1.75-.4,4.1,4.1,0,0,0-1.77.4,4.68,4.68,0,0,0-1.44,1.1,5.5,5.5,0,0,0-1,1.62A5.38,5.38,0,0,0,249.74,82.09Z"/><path class="cls-2" d="M267.37,88a5,5,0,0,1-2.21-.5,5.58,5.58,0,0,1-1.73-1.35,6.36,6.36,0,0,1-1.15-1.91,6.23,6.23,0,0,1-.41-2.21,6.8,6.8,0,0,1,.39-2.29,6,6,0,0,1,1.11-1.93,5.27,5.27,0,0,1,1.71-1.33,4.89,4.89,0,0,1,2.21-.5,4.51,4.51,0,0,1,2.65.8,7.62,7.62,0,0,1,1.91,1.93V76.21h1V88.06a4.63,4.63,0,0,1-.45,2.09,4.35,4.35,0,0,1-1.2,1.48,5.14,5.14,0,0,1-1.74.9,7.18,7.18,0,0,1-2.09.3,7.83,7.83,0,0,1-1.82-.19,5.67,5.67,0,0,1-1.42-.54,4.51,4.51,0,0,1-1.09-.85,6,6,0,0,1-.84-1.1l.76-.52a4.13,4.13,0,0,0,1.88,1.73,6.08,6.08,0,0,0,4.22.31,4.14,4.14,0,0,0,1.38-.73,3.37,3.37,0,0,0,.94-1.2,3.79,3.79,0,0,0,.35-1.68V85.51a5.46,5.46,0,0,1-1.9,1.83A5,5,0,0,1,267.37,88Zm.27-1a4,4,0,0,0,1.45-.28,5.13,5.13,0,0,0,1.27-.73,4.07,4.07,0,0,0,.94-1,2.77,2.77,0,0,0,.46-1.11V80.1a5,5,0,0,0-.72-1.24,4.69,4.69,0,0,0-1-1,4.77,4.77,0,0,0-1.23-.63,4,4,0,0,0-3.22.21,4.47,4.47,0,0,0-1.39,1.16,5.3,5.3,0,0,0-.88,1.62,5.84,5.84,0,0,0-.3,1.83,5.06,5.06,0,0,0,.36,1.9,5.37,5.37,0,0,0,1,1.59,4.55,4.55,0,0,0,1.48,1.09A4.17,4.17,0,0,0,267.64,87.06Z"/><path class="cls-2" d="M281.25,88.06a5.44,5.44,0,0,1-4.07-1.79A5.91,5.91,0,0,1,276,84.35a6.39,6.39,0,0,1-.43-2.3,6.32,6.32,0,0,1,1.64-4.26,5.58,5.58,0,0,1,1.8-1.3,5.14,5.14,0,0,1,2.25-.49,5.06,5.06,0,0,1,2.23.49,5.84,5.84,0,0,1,1.81,1.3,6.28,6.28,0,0,1,1.2,1.93,6.07,6.07,0,0,1,.44,2.33,6,6,0,0,1-.44,2.3,6.27,6.27,0,0,1-1.19,1.92,5.56,5.56,0,0,1-1.8,1.31A5.35,5.35,0,0,1,281.25,88.06Zm-4.57-6A5.23,5.23,0,0,0,277,84a5,5,0,0,0,1,1.57,4.63,4.63,0,0,0,1.45,1.07,4.19,4.19,0,0,0,3.53,0,4.69,4.69,0,0,0,1.46-1.09,5.42,5.42,0,0,0,1-1.6,5.25,5.25,0,0,0,.36-2,5.24,5.24,0,0,0-1.34-3.52A4.81,4.81,0,0,0,283,77.41a4,4,0,0,0-1.75-.4,4.1,4.1,0,0,0-1.77.4,4.68,4.68,0,0,0-1.44,1.1,5.5,5.5,0,0,0-1,1.62A5.38,5.38,0,0,0,276.68,82.09Z"/><path class="cls-2" d="M300.15,88.06a4.93,4.93,0,0,1-2.23-.5,5.61,5.61,0,0,1-1.78-1.34A6.2,6.2,0,0,1,295,84.29a6.35,6.35,0,0,1-.41-2.24,6.6,6.6,0,0,1,.4-2.31,6.1,6.1,0,0,1,1.12-1.92,5.27,5.27,0,0,1,1.69-1.32,4.65,4.65,0,0,1,2.14-.5,4.46,4.46,0,0,1,1.43.23,5.32,5.32,0,0,1,1.25.59,5.87,5.87,0,0,1,1.06.86,6.08,6.08,0,0,1,.8,1V71.51h1.12V86.27c0,.38.16.56.47.56v1l-.22,0-.18,0a1,1,0,0,1-.76-.35,1.07,1.07,0,0,1-.32-.73v-1.3a5.32,5.32,0,0,1-1.91,1.86A4.94,4.94,0,0,1,300.15,88.06Zm.21-1a3.72,3.72,0,0,0,1.29-.25A5,5,0,0,0,304,85.13a2.33,2.33,0,0,0,.49-1.2V80.1a4.58,4.58,0,0,0-.7-1.2,5.34,5.34,0,0,0-1-1,5.05,5.05,0,0,0-1.26-.66,3.65,3.65,0,0,0-1.3-.25,3.87,3.87,0,0,0-1.83.44,4.6,4.6,0,0,0-1.41,1.14,5.18,5.18,0,0,0-.9,1.61,5.91,5.91,0,0,0-.31,1.87,5.12,5.12,0,0,0,1.36,3.49,4.62,4.62,0,0,0,1.47,1.09A4.16,4.16,0,0,0,300.36,87.06Z"/><path class="cls-2" d="M314.07,88.06a5.42,5.42,0,0,1-2.28-.48A5.57,5.57,0,0,1,310,86.26a6.12,6.12,0,0,1-1.21-1.93,6.33,6.33,0,0,1-.44-2.35,6.22,6.22,0,0,1,.44-2.32,6.3,6.3,0,0,1,1.19-1.9,5.74,5.74,0,0,1,1.81-1.29A5.42,5.42,0,0,1,314,76a5.29,5.29,0,0,1,2.29.49,5.74,5.74,0,0,1,1.81,1.29,6.11,6.11,0,0,1,1.19,1.9,6.34,6.34,0,0,1,.42,2.3v.28a.78.78,0,0,1,0,.21h-10.2a5.3,5.3,0,0,0,.46,1.87,5.46,5.46,0,0,0,1,1.49,4.81,4.81,0,0,0,1.42,1,4.22,4.22,0,0,0,1.73.36A4.32,4.32,0,0,0,315.3,87a4.58,4.58,0,0,0,1.09-.46,4,4,0,0,0,.89-.7,3.42,3.42,0,0,0,.62-.91l1,.27a3.58,3.58,0,0,1-.72,1.15,5.19,5.19,0,0,1-1.12.91,5.85,5.85,0,0,1-3,.8Zm4.57-6.48a5.36,5.36,0,0,0-.46-1.88,5,5,0,0,0-1-1.47,4.45,4.45,0,0,0-1.42-1,4.34,4.34,0,0,0-1.72-.35,4.38,4.38,0,0,0-1.73.35,4.57,4.57,0,0,0-1.42,1,4.66,4.66,0,0,0-1,1.48,5.63,5.63,0,0,0-.44,1.87Z"/><path class="cls-2" d="M332.71,88.06a5,5,0,0,1-2.24-.5,5.72,5.72,0,0,1-1.78-1.34,6.32,6.32,0,0,1-1.57-4.17,6.6,6.6,0,0,1,.4-2.31,6.1,6.1,0,0,1,1.12-1.92,5.27,5.27,0,0,1,1.69-1.32,4.64,4.64,0,0,1,2.13-.5,4.53,4.53,0,0,1,1.44.23,5.72,5.72,0,0,1,1.25.59,5.48,5.48,0,0,1,1.05.86,6.69,6.69,0,0,1,.81,1V71.51h1.12V86.27c0,.38.15.56.47.56v1l-.23,0-.18,0a1,1,0,0,1-.76-.35,1.06,1.06,0,0,1-.31-.73v-1.3a5.4,5.4,0,0,1-1.91,1.86A4.94,4.94,0,0,1,332.71,88.06Zm.2-1a3.77,3.77,0,0,0,1.3-.25,5,5,0,0,0,1.29-.68,4.79,4.79,0,0,0,1-1,2.35,2.35,0,0,0,.5-1.2V80.1a4.63,4.63,0,0,0-.71-1.2,4.83,4.83,0,0,0-1-1,5,5,0,0,0-1.25-.66,3.65,3.65,0,0,0-1.3-.25,3.87,3.87,0,0,0-1.83.44,4.38,4.38,0,0,0-1.41,1.14,5.18,5.18,0,0,0-.9,1.61,5.64,5.64,0,0,0-.31,1.87,5.18,5.18,0,0,0,1.35,3.49,4.77,4.77,0,0,0,1.48,1.09A4.15,4.15,0,0,0,332.91,87.06Z"/><path class="cls-2" d="M346.56,88.06a5.34,5.34,0,0,1-2.27-.48,5.56,5.56,0,0,1-1.8-1.31,6.09,6.09,0,0,1-1.19-1.92,6.38,6.38,0,0,1-.42-2.3,6.25,6.25,0,0,1,1.63-4.26,5.69,5.69,0,0,1,1.8-1.3,5.21,5.21,0,0,1,2.25-.49,5.1,5.1,0,0,1,2.24.49,5.92,5.92,0,0,1,1.8,1.3,6.19,6.19,0,0,1,1.64,4.26,6.18,6.18,0,0,1-.43,2.3,6.11,6.11,0,0,1-1.2,1.92,5.56,5.56,0,0,1-1.8,1.31A5.28,5.28,0,0,1,346.56,88.06Zm-4.56-6a5.43,5.43,0,0,0,.35,1.94,5,5,0,0,0,1,1.57,4.59,4.59,0,0,0,1.44,1.07,4.09,4.09,0,0,0,1.77.39,4.15,4.15,0,0,0,1.77-.39,4.65,4.65,0,0,0,1.45-1.09,5.25,5.25,0,0,0,1-1.6,5.46,5.46,0,0,0,.35-2,5.37,5.37,0,0,0-.35-1.93,5,5,0,0,0-1-1.59,4.9,4.9,0,0,0-1.44-1.09,4.05,4.05,0,0,0-1.76-.4,4.1,4.1,0,0,0-1.77.4,4.68,4.68,0,0,0-1.44,1.1,5.28,5.28,0,0,0-1,1.62A5.18,5.18,0,0,0,342,82.09Z"/><path class="cls-2" d="M354.12,82a6.47,6.47,0,0,1,.43-2.33,5.86,5.86,0,0,1,1.18-1.9,5.76,5.76,0,0,1,1.82-1.28,5.63,5.63,0,0,1,2.3-.47,5.38,5.38,0,0,1,2.8.72,4.53,4.53,0,0,1,1.81,2l-1.1.36a3.72,3.72,0,0,0-1.46-1.51,4.06,4.06,0,0,0-2.09-.55,4.29,4.29,0,0,0-1.79.38,4.61,4.61,0,0,0-1.45,1,5.17,5.17,0,0,0-1,1.58,5.25,5.25,0,0,0-.36,2,5.36,5.36,0,0,0,1.36,3.59,4.55,4.55,0,0,0,1.45,1.08,4,4,0,0,0,1.78.41,4.16,4.16,0,0,0,1.2-.18,5.35,5.35,0,0,0,1.09-.47,4,4,0,0,0,.88-.68,2.24,2.24,0,0,0,.5-.82l1.1.31a3.51,3.51,0,0,1-.69,1.13,4.35,4.35,0,0,1-1.08.91,5.59,5.59,0,0,1-1.39.59,5.89,5.89,0,0,1-1.57.21,5.42,5.42,0,0,1-2.28-.48,5.57,5.57,0,0,1-1.82-1.32,6.12,6.12,0,0,1-1.21-1.93A6.33,6.33,0,0,1,354.12,82Z"/><path class="cls-2" d="M370.73,88.06q-3.72,0-3.72-5.14V76.21h1.12v6.55q0,4.3,2.93,4.3a4.11,4.11,0,0,0,1.43-.26,4.74,4.74,0,0,0,1.3-.72,4.83,4.83,0,0,0,1.06-1.1,5.58,5.58,0,0,0,.73-1.44V76.21h1.12V86.27c0,.38.16.56.47.56v1a.71.71,0,0,1-.2,0h-.13a1.22,1.22,0,0,1-.8-.28.9.9,0,0,1-.35-.75V85.09a5.45,5.45,0,0,1-2.09,2.19A5.58,5.58,0,0,1,370.73,88.06Z"/><path class="cls-2" d="M397.35,87.84h-1.12V81.35a6.07,6.07,0,0,0-.68-3.26A2.3,2.3,0,0,0,393.46,77a3.47,3.47,0,0,0-1.36.27,4.12,4.12,0,0,0-1.19.75,4.73,4.73,0,0,0-.93,1.14,5.69,5.69,0,0,0-.61,1.47v7.18h-1.12V81.35a6.31,6.31,0,0,0-.67-3.28,2.33,2.33,0,0,0-2.09-1,3.64,3.64,0,0,0-1.35.26A3.92,3.92,0,0,0,383,78a5.05,5.05,0,0,0-1,1.14,5.41,5.41,0,0,0-.64,1.47v7.2h-1.12V76.21h1.05V79a5.63,5.63,0,0,1,1.88-2.19,4.53,4.53,0,0,1,2.57-.79,3.3,3.3,0,0,1,2.4.88,3.67,3.67,0,0,1,1.09,2.28c1.11-2.1,2.63-3.16,4.57-3.16a2.94,2.94,0,0,1,2.72,1.36,7.39,7.39,0,0,1,.81,3.79Z"/><path class="cls-2" d="M405.68,88.06a5.5,5.5,0,0,1-2.29-.48,5.67,5.67,0,0,1-1.82-1.32A6.19,6.19,0,0,1,399.93,82a6.21,6.21,0,0,1,.43-2.32,6.13,6.13,0,0,1,1.2-1.9,5.82,5.82,0,0,1,1.8-1.29,5.43,5.43,0,0,1,2.25-.47,5.28,5.28,0,0,1,2.28.49,5.63,5.63,0,0,1,1.81,1.29,5.93,5.93,0,0,1,1.19,1.9,6.35,6.35,0,0,1,.43,2.3v.28a.45.45,0,0,1,0,.21h-10.2a5.1,5.1,0,0,0,.47,1.87,5.46,5.46,0,0,0,1,1.49,4.68,4.68,0,0,0,1.42,1,4.18,4.18,0,0,0,1.72.36,4.39,4.39,0,0,0,1.19-.17,4.34,4.34,0,0,0,1.08-.46,3.88,3.88,0,0,0,.9-.7,3.38,3.38,0,0,0,.61-.91l1,.27a3.8,3.8,0,0,1-.73,1.15,4.75,4.75,0,0,1-1.12.91,5.67,5.67,0,0,1-1.4.59A5.81,5.81,0,0,1,405.68,88.06Zm4.56-6.48a5.15,5.15,0,0,0-.46-1.88,5,5,0,0,0-1-1.47,4.57,4.57,0,0,0-1.42-1,4.38,4.38,0,0,0-1.73-.35,4.34,4.34,0,0,0-1.72.35,4.45,4.45,0,0,0-1.42,1,4.69,4.69,0,0,0-1,1.48,5.63,5.63,0,0,0-.43,1.87Z"/><path class="cls-2" d="M423.29,87.84h-1.12V81.35a6.44,6.44,0,0,0-.64-3.29,2.22,2.22,0,0,0-2-1,4.16,4.16,0,0,0-1.47.27,4.74,4.74,0,0,0-1.35.76,5.71,5.71,0,0,0-1.1,1.15,4.72,4.72,0,0,0-.69,1.43v7.2h-1.12V76.21h1.05V79a5.57,5.57,0,0,1,.88-1.22,5.73,5.73,0,0,1,1.19-.94,5.8,5.8,0,0,1,1.4-.6,5.18,5.18,0,0,1,1.52-.22,2.85,2.85,0,0,1,2.68,1.34,7.46,7.46,0,0,1,.79,3.81Z"/><path class="cls-2" d="M431.74,87.28l-.3.17a3,3,0,0,1-.53.23,5.82,5.82,0,0,1-.73.21,4,4,0,0,1-.87.09,2.86,2.86,0,0,1-.89-.14,2.16,2.16,0,0,1-.73-.4,2.1,2.1,0,0,1-.49-.65,2.06,2.06,0,0,1-.18-.9V77.12h-1.63v-.91H427v-4h1.12v4h2.71v.91h-2.71v8.51a1.12,1.12,0,0,0,.45,1,1.64,1.64,0,0,0,1,.32,2.72,2.72,0,0,0,1.19-.23l.62-.3Z"/><path class="cls-2" d="M438.3,88.06a5.34,5.34,0,0,1-2.27-.48,5.56,5.56,0,0,1-1.8-1.31A6.09,6.09,0,0,1,433,84.35a6.38,6.38,0,0,1-.42-2.3,6.25,6.25,0,0,1,1.63-4.26,5.69,5.69,0,0,1,1.8-1.3A5.21,5.21,0,0,1,438.3,76a5.1,5.1,0,0,1,2.24.49,5.92,5.92,0,0,1,1.8,1.3A6.19,6.19,0,0,1,444,82.05a6.18,6.18,0,0,1-.43,2.3,6.11,6.11,0,0,1-1.2,1.92,5.56,5.56,0,0,1-1.8,1.31A5.28,5.28,0,0,1,438.3,88.06Zm-4.56-6a5.43,5.43,0,0,0,.35,1.94,5,5,0,0,0,1,1.57,4.59,4.59,0,0,0,1.44,1.07,4.09,4.09,0,0,0,1.77.39,4.15,4.15,0,0,0,1.77-.39,4.65,4.65,0,0,0,1.45-1.09,5.25,5.25,0,0,0,1-1.6,5.46,5.46,0,0,0,.35-2,5.37,5.37,0,0,0-.35-1.93,5,5,0,0,0-1-1.59,4.9,4.9,0,0,0-1.44-1.09,4.05,4.05,0,0,0-1.76-.4,4.1,4.1,0,0,0-1.77.4,4.68,4.68,0,0,0-1.44,1.1,5.28,5.28,0,0,0-1,1.62A5.18,5.18,0,0,0,433.74,82.09Z"/><path class="cls-2" d="M450.36,88.06a7.43,7.43,0,0,1-2.57-.44,5.94,5.94,0,0,1-2.15-1.35l.56-.76a6.48,6.48,0,0,0,1.95,1.26,5.87,5.87,0,0,0,2.21.4,4.2,4.2,0,0,0,2.45-.64,2,2,0,0,0,.93-1.78,1.59,1.59,0,0,0-.24-.9,1.8,1.8,0,0,0-.7-.63,6.22,6.22,0,0,0-1.16-.46L450,82.34c-.66-.15-1.23-.3-1.72-.45a4.56,4.56,0,0,1-1.19-.54,2.05,2.05,0,0,1-.71-.76,2.54,2.54,0,0,1-.23-1.14,3.31,3.31,0,0,1,.33-1.52,3.22,3.22,0,0,1,.93-1.08,4.3,4.3,0,0,1,1.37-.63,5.8,5.8,0,0,1,1.64-.22,6.11,6.11,0,0,1,2.42.46,4.27,4.27,0,0,1,1.63,1.18l-.63.6a3.53,3.53,0,0,0-1.51-1,5.88,5.88,0,0,0-2-.33,5.31,5.31,0,0,0-1.22.13,2.78,2.78,0,0,0-1,.43,1.94,1.94,0,0,0-.67.75,2.18,2.18,0,0,0-.25,1.08,1.77,1.77,0,0,0,.17.83,1.4,1.4,0,0,0,.54.54,3.73,3.73,0,0,0,1,.39l1.38.37q1.09.27,1.95.51a5.71,5.71,0,0,1,1.42.61,2.62,2.62,0,0,1,.87.85,2.27,2.27,0,0,1,.31,1.25,3,3,0,0,1-1.22,2.5A5.26,5.26,0,0,1,450.36,88.06Z"/><path class="cls-2" d="M472.69,87.84h-1.12V81.35q0-4.32-2.88-4.32a3.75,3.75,0,0,0-1.4.27,4.66,4.66,0,0,0-1.28.76,6,6,0,0,0-1,1.15,5.18,5.18,0,0,0-.67,1.43v7.2h-1.12V71.51h1.12V79a5.68,5.68,0,0,1,2-2.17A4.94,4.94,0,0,1,469,76a3.6,3.6,0,0,1,1.66.36,3.14,3.14,0,0,1,1.15,1,4.76,4.76,0,0,1,.67,1.62,10,10,0,0,1,.21,2.14Z"/><path class="cls-2" d="M476.07,73.56v-2h1.12v2Zm0,14.28V76.21h1.12V87.84Z"/><path class="cls-2" d="M484.39,88.06a7.43,7.43,0,0,1-2.57-.44,5.94,5.94,0,0,1-2.15-1.35l.56-.76a6.6,6.6,0,0,0,1.95,1.26,5.87,5.87,0,0,0,2.21.4,4.2,4.2,0,0,0,2.45-.64,2,2,0,0,0,.93-1.78,1.67,1.67,0,0,0-.23-.9,1.84,1.84,0,0,0-.71-.63,6.22,6.22,0,0,0-1.16-.46c-.46-.13-1-.27-1.61-.42s-1.23-.3-1.71-.45a4.49,4.49,0,0,1-1.2-.54,2.14,2.14,0,0,1-.71-.76,2.54,2.54,0,0,1-.23-1.14,3.31,3.31,0,0,1,.33-1.52,3.22,3.22,0,0,1,.93-1.08,4.3,4.3,0,0,1,1.37-.63,5.8,5.8,0,0,1,1.64-.22,6.11,6.11,0,0,1,2.42.46,4.27,4.27,0,0,1,1.63,1.18l-.62.6a3.66,3.66,0,0,0-1.51-1,5.88,5.88,0,0,0-2-.33,5.25,5.25,0,0,0-1.22.13,2.83,2.83,0,0,0-1,.43,2,2,0,0,0-.67.75,2.3,2.3,0,0,0-.25,1.08,1.77,1.77,0,0,0,.17.83,1.4,1.4,0,0,0,.54.54,3.73,3.73,0,0,0,.95.39l1.39.37c.73.18,1.38.35,1.94.51a5.71,5.71,0,0,1,1.42.61,2.66,2.66,0,0,1,.88.85,2.36,2.36,0,0,1,.3,1.25,3,3,0,0,1-1.22,2.5A5.24,5.24,0,0,1,484.39,88.06Z"/><path class="cls-2" d="M496.66,87.28l-.31.17a3,3,0,0,1-.53.23,5.82,5.82,0,0,1-.73.21,4,4,0,0,1-.87.09,2.86,2.86,0,0,1-.89-.14,2,2,0,0,1-.72-.4,2,2,0,0,1-.5-.65,2.06,2.06,0,0,1-.18-.9V77.12H490.3v-.91h1.63v-4h1.12v4h2.71v.91h-2.71v8.51a1.12,1.12,0,0,0,.45,1,1.64,1.64,0,0,0,1,.32,2.72,2.72,0,0,0,1.19-.23l.62-.3Z"/><path class="cls-2" d="M503.21,88.06a5.34,5.34,0,0,1-2.27-.48,5.56,5.56,0,0,1-1.8-1.31A6.09,6.09,0,0,1,498,84.35a6.38,6.38,0,0,1-.42-2.3,6.26,6.26,0,0,1,.43-2.33,6.47,6.47,0,0,1,1.2-1.93,5.69,5.69,0,0,1,1.8-1.3,5.21,5.21,0,0,1,2.25-.49,5.1,5.1,0,0,1,2.24.49,5.8,5.8,0,0,1,1.8,1.3,6.19,6.19,0,0,1,1.64,4.26,6.18,6.18,0,0,1-.43,2.3,6.11,6.11,0,0,1-1.2,1.92,5.56,5.56,0,0,1-1.8,1.31A5.28,5.28,0,0,1,503.21,88.06Zm-4.56-6A5.43,5.43,0,0,0,499,84a5,5,0,0,0,1,1.57,4.59,4.59,0,0,0,1.44,1.07,4.21,4.21,0,0,0,3.54,0,4.65,4.65,0,0,0,1.45-1.09,5.25,5.25,0,0,0,1-1.6,5.46,5.46,0,0,0,.35-2,5.37,5.37,0,0,0-.35-1.93,5,5,0,0,0-1-1.59A4.9,4.9,0,0,0,505,77.41a4.05,4.05,0,0,0-1.76-.4,4.13,4.13,0,0,0-1.77.4,4.68,4.68,0,0,0-1.44,1.1,5.28,5.28,0,0,0-1,1.62A5.18,5.18,0,0,0,498.65,82.09Zm4.54-8.32-.78-.36,1.36-1.9h1.3Z"/><path class="cls-2" d="M517.08,77.21a4.68,4.68,0,0,0-2.74.93,4.62,4.62,0,0,0-1.64,2.43v7.27h-1.12V76.21h1.07v2.86a5.69,5.69,0,0,1,1.6-2,4.14,4.14,0,0,1,2.14-.89l.4,0h.29Z"/><path class="cls-2" d="M519.21,73.56v-2h1.12v2Zm0,14.28V76.21h1.12V87.84Z"/><path class="cls-2" d="M523,82a6.46,6.46,0,0,1,.42-2.33,5.72,5.72,0,0,1,1.19-1.9A5.55,5.55,0,0,1,528.76,76a5.35,5.35,0,0,1,2.8.72,4.47,4.47,0,0,1,1.81,2l-1.09.36a3.81,3.81,0,0,0-1.47-1.51,4.06,4.06,0,0,0-2.09-.55,4.29,4.29,0,0,0-1.79.38,4.69,4.69,0,0,0-1.44,1,5.2,5.2,0,0,0-1,1.58,5.25,5.25,0,0,0-.36,2,5.36,5.36,0,0,0,1.36,3.59A4.55,4.55,0,0,0,527,86.65a4,4,0,0,0,1.78.41,4.16,4.16,0,0,0,1.2-.18,5.35,5.35,0,0,0,1.09-.47,4,4,0,0,0,.88-.68,2.24,2.24,0,0,0,.5-.82l1.1.31a3.51,3.51,0,0,1-.69,1.13,4.35,4.35,0,0,1-1.08.91,5.59,5.59,0,0,1-1.39.59,5.81,5.81,0,0,1-1.56.21,5.46,5.46,0,0,1-2.29-.48,5.57,5.57,0,0,1-1.82-1.32A6.19,6.19,0,0,1,523,82Z"/><path class="cls-2" d="M540.8,88.06a5.34,5.34,0,0,1-2.27-.48,5.56,5.56,0,0,1-1.8-1.31,6.09,6.09,0,0,1-1.19-1.92,6.38,6.38,0,0,1-.42-2.3,6.26,6.26,0,0,1,.43-2.33,6.47,6.47,0,0,1,1.2-1.93,5.69,5.69,0,0,1,1.8-1.3A5.21,5.21,0,0,1,540.8,76a5.1,5.1,0,0,1,2.24.49,5.69,5.69,0,0,1,1.8,1.3,6.12,6.12,0,0,1,1.21,1.93,6.27,6.27,0,0,1,.44,2.33,6.19,6.19,0,0,1-.44,2.3,6.11,6.11,0,0,1-1.2,1.92,5.56,5.56,0,0,1-1.8,1.31A5.28,5.28,0,0,1,540.8,88.06Zm-4.56-6A5.23,5.23,0,0,0,536.6,84a4.83,4.83,0,0,0,1,1.57A4.59,4.59,0,0,0,539,86.67a4.21,4.21,0,0,0,3.54,0A4.65,4.65,0,0,0,544,85.58a5.25,5.25,0,0,0,1-1.6,5.46,5.46,0,0,0,.35-2,5.37,5.37,0,0,0-.35-1.93,5,5,0,0,0-1-1.59,4.9,4.9,0,0,0-1.44-1.09,4.05,4.05,0,0,0-1.76-.4,4.16,4.16,0,0,0-1.77.4,4.68,4.68,0,0,0-1.44,1.1,5.28,5.28,0,0,0-1,1.62A5.18,5.18,0,0,0,536.24,82.09Z"/><path class="cls-2" d="M552.86,88.06a7.43,7.43,0,0,1-2.57-.44,5.94,5.94,0,0,1-2.15-1.35l.56-.76a6.6,6.6,0,0,0,1.95,1.26,5.87,5.87,0,0,0,2.21.4,4.2,4.2,0,0,0,2.45-.64,2,2,0,0,0,.93-1.78,1.67,1.67,0,0,0-.23-.9,1.91,1.91,0,0,0-.71-.63,6.22,6.22,0,0,0-1.16-.46c-.46-.13-1-.27-1.61-.42s-1.23-.3-1.71-.45a4.49,4.49,0,0,1-1.2-.54,2.05,2.05,0,0,1-.71-.76,2.54,2.54,0,0,1-.23-1.14,3.31,3.31,0,0,1,.33-1.52,3.22,3.22,0,0,1,.93-1.08,4.3,4.3,0,0,1,1.37-.63A5.8,5.8,0,0,1,553,76a6.11,6.11,0,0,1,2.42.46A4.27,4.27,0,0,1,557,77.64l-.62.6a3.66,3.66,0,0,0-1.51-1,5.88,5.88,0,0,0-2-.33,5.25,5.25,0,0,0-1.22.13,2.83,2.83,0,0,0-1,.43,2,2,0,0,0-.67.75,2.18,2.18,0,0,0-.25,1.08,1.77,1.77,0,0,0,.17.83,1.4,1.4,0,0,0,.54.54,3.73,3.73,0,0,0,.95.39l1.39.37c.73.18,1.38.35,1.94.51a5.71,5.71,0,0,1,1.42.61,2.76,2.76,0,0,1,.88.85,2.36,2.36,0,0,1,.3,1.25,3,3,0,0,1-1.22,2.5A5.24,5.24,0,0,1,552.86,88.06Z"/><path class="cls-2" d="M201.88,111.05a5,5,0,0,1-2.24-.51,5.68,5.68,0,0,1-1.77-1.34,6.27,6.27,0,0,1-1.17-1.92,6.44,6.44,0,0,1-.41-2.25,6.6,6.6,0,0,1,.4-2.31,6.1,6.1,0,0,1,1.12-1.92,5.57,5.57,0,0,1,1.69-1.32,4.65,4.65,0,0,1,2.14-.49,4.51,4.51,0,0,1,1.43.22,6,6,0,0,1,1.25.59,5.81,5.81,0,0,1,1.86,1.92V94.49h1.12v14.77c0,.37.15.56.47.56v1l-.23,0h-.18a1,1,0,0,1-.76-.35,1.06,1.06,0,0,1-.31-.73V108.5a5.46,5.46,0,0,1-1.91,1.85A4.85,4.85,0,0,1,201.88,111.05Zm.2-1a3.73,3.73,0,0,0,1.3-.25,5,5,0,0,0,1.29-.68,5.32,5.32,0,0,0,1-1,2.49,2.49,0,0,0,.49-1.21v-3.83a4.63,4.63,0,0,0-.71-1.2,5.09,5.09,0,0,0-1-1,5,5,0,0,0-1.25-.66,3.79,3.79,0,0,0-3.13.19,4.6,4.6,0,0,0-1.41,1.14,5.18,5.18,0,0,0-.9,1.61,5.69,5.69,0,0,0-.31,1.87,5,5,0,0,0,.36,1.9,5.2,5.2,0,0,0,1,1.59,5,5,0,0,0,1.48,1.1A4.14,4.14,0,0,0,202.08,110Z"/><path class="cls-2" d="M215.8,111.05a5.42,5.42,0,0,1-2.28-.48,5.87,5.87,0,0,1-1.83-1.32,6.32,6.32,0,0,1-1.2-1.94,6.1,6.1,0,0,1-.44-2.35,6,6,0,0,1,.44-2.32,6.3,6.3,0,0,1,1.19-1.9,5.63,5.63,0,0,1,1.8-1.28,5.34,5.34,0,0,1,2.25-.47,5.42,5.42,0,0,1,2.28.48,5.55,5.55,0,0,1,1.82,1.3,5.86,5.86,0,0,1,1.18,1.9,6.09,6.09,0,0,1,.43,2.29v.28a.78.78,0,0,1,0,.21H211.21a5.26,5.26,0,0,0,.47,1.87,5.31,5.31,0,0,0,1,1.49,4.35,4.35,0,0,0,1.42,1,4.18,4.18,0,0,0,1.72.36A4,4,0,0,0,217,110a5,5,0,0,0,1.09-.45,4.09,4.09,0,0,0,.89-.71,3.42,3.42,0,0,0,.62-.91l1,.27a3.77,3.77,0,0,1-.73,1.16,4.71,4.71,0,0,1-1.12.9,5.39,5.39,0,0,1-1.39.59A5.51,5.51,0,0,1,215.8,111.05Zm4.56-6.49a5.09,5.09,0,0,0-1.46-3.35,4.57,4.57,0,0,0-1.42-1,4.43,4.43,0,0,0-3.45,0,4.45,4.45,0,0,0-1.42,1,4.61,4.61,0,0,0-1,1.48,5.69,5.69,0,0,0-.44,1.87Z"/><path class="cls-2" d="M229.74,94.49h1.14v14a1.42,1.42,0,0,0,.37,1,1.37,1.37,0,0,0,1,.38,3.56,3.56,0,0,0,.59-.06,2.62,2.62,0,0,0,.64-.17l.22.9a5,5,0,0,1-.94.26,6.26,6.26,0,0,1-1,.1,2,2,0,0,1-1.51-.57,2.08,2.08,0,0,1-.57-1.54Z"/><path class="cls-2" d="M238.31,111.05a4,4,0,0,1-2.72-1,3.46,3.46,0,0,1-.82-1.14,3.58,3.58,0,0,1-.29-1.43,2.71,2.71,0,0,1,.36-1.38,3.44,3.44,0,0,1,1-1.09,4.92,4.92,0,0,1,1.53-.71,6.81,6.81,0,0,1,2-.26,10.22,10.22,0,0,1,1.89.17,8.86,8.86,0,0,1,1.71.46v-1.15a3.62,3.62,0,0,0-.94-2.63,3.42,3.42,0,0,0-2.55-1,5.06,5.06,0,0,0-1.8.36,9.15,9.15,0,0,0-1.94,1l-.42-.76A7.59,7.59,0,0,1,239.54,99a4.42,4.42,0,0,1,3.31,1.22,4.54,4.54,0,0,1,1.21,3.36v5.69c0,.37.16.56.49.56v1l-.23,0h-.22a.91.91,0,0,1-.71-.3,1.23,1.23,0,0,1-.31-.73v-1a5.37,5.37,0,0,1-2.06,1.61A6.64,6.64,0,0,1,238.31,111.05Zm.22-.9a5.71,5.71,0,0,0,2.39-.49,4.08,4.08,0,0,0,1.66-1.3,1.48,1.48,0,0,0,.36-.89v-2.06a8.71,8.71,0,0,0-1.68-.47,9.67,9.67,0,0,0-1.81-.16,6.54,6.54,0,0,0-1.59.19,4.08,4.08,0,0,0-1.23.53,2.35,2.35,0,0,0-.79.81,2.09,2.09,0,0,0-.28,1.07,2.66,2.66,0,0,0,.22,1.09,2.57,2.57,0,0,0,.63.89,3,3,0,0,0,1,.58A3.24,3.24,0,0,0,238.53,110.15Z"/><path class="cls-2" d="M253.55,110.82V94.94h6.53a4.16,4.16,0,0,1,1.86.42,4.9,4.9,0,0,1,1.46,1.13,5.36,5.36,0,0,1,1,1.59,4.66,4.66,0,0,1,.35,1.78,5.6,5.6,0,0,1-.32,1.86,5.47,5.47,0,0,1-.92,1.59,4.49,4.49,0,0,1-1.42,1.1,4,4,0,0,1-1.84.42h-5.52v6Zm1.14-7h5.48a3,3,0,0,0,1.41-.32,3.32,3.32,0,0,0,1.06-.87,4,4,0,0,0,.67-1.26,4.47,4.47,0,0,0,.24-1.46,4.15,4.15,0,0,0-.28-1.49,4.22,4.22,0,0,0-.76-1.24,3.7,3.7,0,0,0-1.12-.85A3,3,0,0,0,260,96h-5.35Z"/><path class="cls-2" d="M272.61,100.19a4.59,4.59,0,0,0-4.39,3.36v7.27h-1.11V99.19h1.07v2.86a5.58,5.58,0,0,1,1.6-2,4,4,0,0,1,2.14-.88l.4,0h.29Z"/><path class="cls-2" d="M279,111.05a5.34,5.34,0,0,1-2.27-.48,5.71,5.71,0,0,1-1.8-1.31,6.13,6.13,0,0,1-1.19-1.93,6.38,6.38,0,0,1-.42-2.3,6.32,6.32,0,0,1,1.63-4.25,5.56,5.56,0,0,1,1.8-1.31A5.35,5.35,0,0,1,279,99a5.24,5.24,0,0,1,2.24.48,5.56,5.56,0,0,1,1.8,1.31,6,6,0,0,1,1.21,1.92,6.27,6.27,0,0,1,.44,2.33,6.32,6.32,0,0,1-1.64,4.23,5.71,5.71,0,0,1-1.8,1.31A5.28,5.28,0,0,1,279,111.05Zm-4.56-6a5.23,5.23,0,0,0,.36,1.94,5,5,0,0,0,1,1.58,4.72,4.72,0,0,0,1.44,1.06,4.21,4.21,0,0,0,3.54,0,4.51,4.51,0,0,0,1.45-1.09,5.13,5.13,0,0,0,1-1.6,5.58,5.58,0,0,0,0-3.89,5.2,5.2,0,0,0-1-1.59,4.86,4.86,0,0,0-1.44-1.08A3.92,3.92,0,0,0,279,100a4,4,0,0,0-1.77.41,4.5,4.5,0,0,0-1.44,1.09,5.52,5.52,0,0,0-1,1.62A5.21,5.21,0,0,0,274.47,105.07Z"/><path class="cls-2" d="M290.56,110.82,285.7,99.19h1.16l4.3,10.51,4.32-10.51h1.09l-4.85,11.63Z"/><path class="cls-2" d="M298.79,96.55V94.49h1.12v2.06Zm0,14.27V99.19h1.12v11.63Z"/><path class="cls-2" d="M312.93,110.82h-1.12v-6.49a6.44,6.44,0,0,0-.64-3.29,2.2,2.2,0,0,0-2-1,4.47,4.47,0,0,0-1.47.26,5.31,5.31,0,0,0-1.35.76,5.77,5.77,0,0,0-1.1,1.16,4.79,4.79,0,0,0-.69,1.42v7.2h-1.12V99.19h1.05V102a5.61,5.61,0,0,1,.89-1.22,5.67,5.67,0,0,1,1.18-.94,6,6,0,0,1,1.4-.6,5.52,5.52,0,0,1,1.52-.21,2.86,2.86,0,0,1,2.69,1.33,7.63,7.63,0,0,1,.78,3.81Z"/><path class="cls-2" d="M315.5,105a6.47,6.47,0,0,1,.43-2.33,5.86,5.86,0,0,1,1.18-1.9,5.58,5.58,0,0,1,1.82-1.27,5.87,5.87,0,0,1,5.1.24,4.53,4.53,0,0,1,1.81,2l-1.1.36a3.79,3.79,0,0,0-1.46-1.51,4.18,4.18,0,0,0-2.09-.55,4.29,4.29,0,0,0-1.79.38,4.49,4.49,0,0,0-1.45,1.06,5,5,0,0,0-1,1.57,5.29,5.29,0,0,0-.36,2,5.44,5.44,0,0,0,.37,2,5.32,5.32,0,0,0,1,1.61,4.58,4.58,0,0,0,1.45,1.09,4,4,0,0,0,1.78.4,4.16,4.16,0,0,0,1.2-.18,4.85,4.85,0,0,0,1.09-.47,3.75,3.75,0,0,0,.88-.68,2.16,2.16,0,0,0,.5-.82l1.1.32a3.74,3.74,0,0,1-.69,1.13,4.32,4.32,0,0,1-1.08.9,5.24,5.24,0,0,1-1.39.59,5.51,5.51,0,0,1-1.57.22,5.42,5.42,0,0,1-2.28-.48,5.71,5.71,0,0,1-1.82-1.32,6.16,6.16,0,0,1-1.21-1.94A6.3,6.3,0,0,1,315.5,105Z"/><path class="cls-2" d="M328.5,96.55V94.49h1.12v2.06Zm0,14.27V99.19h1.12v11.63Z"/><path class="cls-2" d="M336,111.05a4,4,0,0,1-2.72-1,3.46,3.46,0,0,1-.82-1.14,3.58,3.58,0,0,1-.29-1.43,2.71,2.71,0,0,1,.36-1.38,3.44,3.44,0,0,1,1-1.09,4.92,4.92,0,0,1,1.53-.71,6.81,6.81,0,0,1,2-.26,10.07,10.07,0,0,1,1.89.17,8.86,8.86,0,0,1,1.71.46v-1.15a3.62,3.62,0,0,0-.94-2.63,3.42,3.42,0,0,0-2.55-1,5.06,5.06,0,0,0-1.8.36,9.4,9.4,0,0,0-1.94,1l-.42-.76A7.59,7.59,0,0,1,337.23,99a4.42,4.42,0,0,1,3.31,1.22,4.54,4.54,0,0,1,1.21,3.36v5.69c0,.37.16.56.49.56v1l-.23,0h-.22a.91.91,0,0,1-.71-.3,1.3,1.3,0,0,1-.31-.73v-1a5.37,5.37,0,0,1-2.06,1.61A6.64,6.64,0,0,1,336,111.05Zm.22-.9a5.71,5.71,0,0,0,2.39-.49,4,4,0,0,0,1.66-1.3,1.48,1.48,0,0,0,.36-.89v-2.06a8.71,8.71,0,0,0-1.68-.47,9.67,9.67,0,0,0-1.81-.16,6.54,6.54,0,0,0-1.59.19,4.08,4.08,0,0,0-1.23.53,2.35,2.35,0,0,0-.79.81,2.09,2.09,0,0,0-.28,1.07,2.66,2.66,0,0,0,.22,1.09,2.57,2.57,0,0,0,.63.89,3,3,0,0,0,.95.58A3.24,3.24,0,0,0,336.22,110.15Z"/><path class="cls-2" d="M355.69,111.05a5,5,0,0,1-2.24-.51,5.72,5.72,0,0,1-1.78-1.34A6.27,6.27,0,0,1,350.1,105a6.6,6.6,0,0,1,.4-2.31,6.1,6.1,0,0,1,1.12-1.92,5.45,5.45,0,0,1,1.69-1.32,4.63,4.63,0,0,1,2.13-.49,4.52,4.52,0,0,1,1.44.22,6.22,6.22,0,0,1,1.25.59,5.88,5.88,0,0,1,1.05.86,6.33,6.33,0,0,1,.81,1.06V94.49h1.11v14.77c0,.37.16.56.47.56v1l-.22,0h-.18a1,1,0,0,1-.76-.35,1.06,1.06,0,0,1-.31-.73V108.5a5.41,5.41,0,0,1-1.92,1.85A4.82,4.82,0,0,1,355.69,111.05Zm.2-1a3.77,3.77,0,0,0,1.3-.25,5,5,0,0,0,2.3-1.67,2.42,2.42,0,0,0,.5-1.21v-3.83a4.63,4.63,0,0,0-.71-1.2,5.36,5.36,0,0,0-1-1,5.17,5.17,0,0,0-1.25-.66,3.88,3.88,0,0,0-1.3-.25,3.93,3.93,0,0,0-1.84.44,4.45,4.45,0,0,0-1.4,1.14,5.18,5.18,0,0,0-.9,1.61,5.69,5.69,0,0,0-.31,1.87,5.05,5.05,0,0,0,1.35,3.49,5,5,0,0,0,1.48,1.1A4.11,4.11,0,0,0,355.89,110Z"/><path class="cls-2" d="M369.61,111.05a5.5,5.5,0,0,1-2.29-.48,5.83,5.83,0,0,1-1.82-1.32,6.24,6.24,0,0,1-1.64-4.29,6.21,6.21,0,0,1,.43-2.32,6.13,6.13,0,0,1,1.2-1.9,5.63,5.63,0,0,1,1.8-1.28,5.31,5.31,0,0,1,2.25-.47,5.42,5.42,0,0,1,2.28.48,5.51,5.51,0,0,1,1.81,1.3,5.72,5.72,0,0,1,1.19,1.9,6.3,6.3,0,0,1,.43,2.29v.28a.45.45,0,0,1,0,.21H365a5.05,5.05,0,0,0,.47,1.87,5.31,5.31,0,0,0,1,1.49,4.35,4.35,0,0,0,1.42,1,4.18,4.18,0,0,0,1.72.36,4,4,0,0,0,1.19-.17,4.72,4.72,0,0,0,1.08-.45,3.92,3.92,0,0,0,.9-.71,3.38,3.38,0,0,0,.61-.91l1,.27a4,4,0,0,1-.73,1.16,4.71,4.71,0,0,1-1.12.9,5.31,5.31,0,0,1-1.4.59A5.45,5.45,0,0,1,369.61,111.05Zm4.56-6.49a5.2,5.2,0,0,0-.46-1.88,5,5,0,0,0-1-1.47,4.57,4.57,0,0,0-1.42-1,4.38,4.38,0,0,0-1.73-.35,4.34,4.34,0,0,0-1.72.35,4.45,4.45,0,0,0-1.42,1,4.8,4.8,0,0,0-1,1.48,5.69,5.69,0,0,0-.43,1.87Z"/><path class="cls-2" d="M382.7,102.77a8.41,8.41,0,0,1,.5-2.86,7.81,7.81,0,0,1,1.47-2.53A7.41,7.41,0,0,1,387,95.55a7,7,0,0,1,3.18-.7,6.51,6.51,0,0,1,3.63,1,6.18,6.18,0,0,1,2.24,2.5l-.94.53a5.7,5.7,0,0,0-1-1.39,5.24,5.24,0,0,0-1.23-.9,5.31,5.31,0,0,0-1.38-.5,6.14,6.14,0,0,0-1.4-.16,5.68,5.68,0,0,0-2.69.61,6.42,6.42,0,0,0-2,1.6,7,7,0,0,0-1.22,2.23,8,8,0,0,0-.41,2.49,7.38,7.38,0,0,0,.49,2.69,7.68,7.68,0,0,0,1.34,2.25,6.38,6.38,0,0,0,2,1.55,5.48,5.48,0,0,0,2.5.59,6.43,6.43,0,0,0,1.48-.18,5.75,5.75,0,0,0,2.75-1.54,5.28,5.28,0,0,0,1-1.39l1,.47a5.38,5.38,0,0,1-1.09,1.58,7,7,0,0,1-1.55,1.17,7.16,7.16,0,0,1-1.8.7,7.62,7.62,0,0,1-1.87.24,6.22,6.22,0,0,1-3-.72,7.76,7.76,0,0,1-2.34-1.87,8.66,8.66,0,0,1-2.08-5.6Z"/><path class="cls-2" d="M401.76,111.05a4,4,0,0,1-2.72-1,3.46,3.46,0,0,1-.82-1.14,3.58,3.58,0,0,1-.29-1.43,2.71,2.71,0,0,1,.36-1.38,3.44,3.44,0,0,1,1-1.09,4.92,4.92,0,0,1,1.53-.71,6.81,6.81,0,0,1,2-.26,10.07,10.07,0,0,1,1.89.17,8.86,8.86,0,0,1,1.71.46v-1.15a3.62,3.62,0,0,0-.94-2.63,3.39,3.39,0,0,0-2.55-1,5.06,5.06,0,0,0-1.8.36,9.4,9.4,0,0,0-1.94,1l-.42-.76A7.59,7.59,0,0,1,403,99a4.42,4.42,0,0,1,3.31,1.22,4.54,4.54,0,0,1,1.21,3.36v5.69c0,.37.16.56.49.56v1l-.23,0h-.21a.92.92,0,0,1-.72-.3,1.3,1.3,0,0,1-.31-.73v-1a5.37,5.37,0,0,1-2.06,1.61A6.64,6.64,0,0,1,401.76,111.05Zm.22-.9a5.71,5.71,0,0,0,2.39-.49,4,4,0,0,0,1.66-1.3,1.48,1.48,0,0,0,.36-.89v-2.06a8.33,8.33,0,0,0-1.68-.47,9.67,9.67,0,0,0-1.81-.16,6.54,6.54,0,0,0-1.59.19,4.31,4.31,0,0,0-1.23.53,2.35,2.35,0,0,0-.79.81,2.09,2.09,0,0,0-.28,1.07,2.66,2.66,0,0,0,.22,1.09,2.57,2.57,0,0,0,.63.89,3,3,0,0,0,.95.58A3.24,3.24,0,0,0,402,110.15Z"/><path class="cls-2" d="M416.42,100.19a4.64,4.64,0,0,0-2.74.93,4.58,4.58,0,0,0-1.65,2.43v7.27h-1.12V99.19H412v2.86a5.48,5.48,0,0,1,1.6-2,4,4,0,0,1,2.13-.88l.41,0h.29Z"/><path class="cls-2" d="M423.73,110.26l-.3.17a3.56,3.56,0,0,1-.54.24,7.23,7.23,0,0,1-.72.2,4,4,0,0,1-.88.09,2.84,2.84,0,0,1-.88-.14,2.07,2.07,0,0,1-.73-.4,1.86,1.86,0,0,1-.49-.65,2,2,0,0,1-.18-.89v-8.77h-1.63v-.92H419v-4h1.12v4h2.71v.92h-2.71v8.5a1.11,1.11,0,0,0,.45,1,1.64,1.64,0,0,0,1,.33,2.73,2.73,0,0,0,1.2-.24l.62-.3Z"/><path class="cls-2" d="M428.57,111.05a4.08,4.08,0,0,1-1.5-.28,4,4,0,0,1-1.22-.76,3.32,3.32,0,0,1-.82-1.14,3.58,3.58,0,0,1-.29-1.43,2.71,2.71,0,0,1,.36-1.38,3.53,3.53,0,0,1,1-1.09,5.09,5.09,0,0,1,1.54-.71,6.76,6.76,0,0,1,2-.26,10.22,10.22,0,0,1,1.89.17,8.86,8.86,0,0,1,1.71.46v-1.15a3.66,3.66,0,0,0-.94-2.63,3.42,3.42,0,0,0-2.55-1,5.06,5.06,0,0,0-1.8.36,9.15,9.15,0,0,0-1.94,1l-.42-.76A7.56,7.56,0,0,1,429.8,99a4.43,4.43,0,0,1,3.31,1.22,4.58,4.58,0,0,1,1.21,3.36v5.69c0,.37.16.56.49.56v1l-.24,0h-.21a.89.89,0,0,1-.71-.3,1.31,1.31,0,0,1-.32-.73v-1a5.3,5.3,0,0,1-2.06,1.61A6.56,6.56,0,0,1,428.57,111.05Zm.22-.9a5.66,5.66,0,0,0,2.38-.49,4,4,0,0,0,1.67-1.3,1.48,1.48,0,0,0,.36-.89v-2.06a8.71,8.71,0,0,0-1.68-.47,9.75,9.75,0,0,0-1.81-.16,6.54,6.54,0,0,0-1.59.19,4.08,4.08,0,0,0-1.23.53,2.38,2.38,0,0,0-.8.81,2.19,2.19,0,0,0-.28,1.07,2.76,2.76,0,0,0,.85,2,3.15,3.15,0,0,0,.95.58A3.29,3.29,0,0,0,428.79,110.15Z"/><path class="cls-2" d="M442.42,111a5,5,0,0,1-2.22-.5,5.55,5.55,0,0,1-1.73-1.34,6.19,6.19,0,0,1-1.14-1.92,6,6,0,0,1-.42-2.21,6.74,6.74,0,0,1,.39-2.28,6,6,0,0,1,1.11-1.94,5.41,5.41,0,0,1,1.71-1.33,4.91,4.91,0,0,1,2.21-.49,4.51,4.51,0,0,1,2.65.79,7.66,7.66,0,0,1,1.91,1.94V99.19h1v11.86a4.58,4.58,0,0,1-.45,2.08,4.46,4.46,0,0,1-1.19,1.49,5.35,5.35,0,0,1-1.75.89,7.18,7.18,0,0,1-2.09.3,7.68,7.68,0,0,1-1.81-.19,5.18,5.18,0,0,1-1.42-.53,4.89,4.89,0,0,1-1.1-.85,6.48,6.48,0,0,1-.84-1.11l.76-.52a4.21,4.21,0,0,0,1.88,1.74,6,6,0,0,0,2.53.55,5.85,5.85,0,0,0,1.69-.25,4,4,0,0,0,1.38-.73,3.37,3.37,0,0,0,.94-1.2,3.64,3.64,0,0,0,.35-1.67V108.5a5.43,5.43,0,0,1-1.9,1.82A5,5,0,0,1,442.42,111Zm.26-1a3.82,3.82,0,0,0,1.45-.28,5.13,5.13,0,0,0,1.27-.73,4.21,4.21,0,0,0,.94-1,2.87,2.87,0,0,0,.46-1.12v-3.83a5.25,5.25,0,0,0-.71-1.24,4.67,4.67,0,0,0-1-1,4.8,4.8,0,0,0-1.23-.64,3.9,3.9,0,0,0-1.33-.24,3.84,3.84,0,0,0-1.88.45,4.53,4.53,0,0,0-1.4,1.16,5.45,5.45,0,0,0-.88,1.63,5.74,5.74,0,0,0-.3,1.82,5,5,0,0,0,.36,1.9,5.2,5.2,0,0,0,1,1.59,4.69,4.69,0,0,0,1.47,1.1A4.16,4.16,0,0,0,442.68,110Z"/><path class="cls-2" d="M456.36,111.05a5.46,5.46,0,0,1-2.29-.48,5.71,5.71,0,0,1-1.82-1.32,6.24,6.24,0,0,1-1.64-4.29,6.21,6.21,0,0,1,.43-2.32,6.13,6.13,0,0,1,1.2-1.9,5.63,5.63,0,0,1,1.8-1.28,5.28,5.28,0,0,1,2.25-.47,5.42,5.42,0,0,1,2.28.48,5.51,5.51,0,0,1,1.81,1.3,5.72,5.72,0,0,1,1.19,1.9A6.29,6.29,0,0,1,462,105v.28a.5.5,0,0,1,0,.21h-10.2a5.05,5.05,0,0,0,.47,1.87,5.31,5.31,0,0,0,1,1.49,4.35,4.35,0,0,0,1.42,1,4.14,4.14,0,0,0,1.72.36,4,4,0,0,0,1.19-.17,4.92,4.92,0,0,0,1.08-.45,3.92,3.92,0,0,0,.9-.71,3.38,3.38,0,0,0,.61-.91l1,.27a4,4,0,0,1-.73,1.16,4.71,4.71,0,0,1-1.12.9,5.31,5.31,0,0,1-1.4.59A5.45,5.45,0,0,1,456.36,111.05Zm4.56-6.49a5.2,5.2,0,0,0-.46-1.88,4.81,4.81,0,0,0-1-1.47,4.45,4.45,0,0,0-1.42-1,4.4,4.4,0,0,0-3.44,0,4.45,4.45,0,0,0-1.42,1,4.8,4.8,0,0,0-1,1.48,5.69,5.69,0,0,0-.43,1.87Z"/><path class="cls-2" d="M474,110.82h-1.12v-6.49a6.55,6.55,0,0,0-.64-3.29,2.22,2.22,0,0,0-2-1,4.37,4.37,0,0,0-1.46.26,5.2,5.2,0,0,0-1.36.76,5.73,5.73,0,0,0-1.09,1.16,4.59,4.59,0,0,0-.7,1.42v7.2h-1.11V99.19h1.05V102a5.57,5.57,0,0,1,.88-1.22,5.73,5.73,0,0,1,1.19-.94,5.8,5.8,0,0,1,1.4-.6A5.47,5.47,0,0,1,470.5,99a2.84,2.84,0,0,1,2.68,1.33,7.62,7.62,0,0,1,.79,3.81Z"/><path class="cls-2" d="M480.21,111.05a4,4,0,0,1-2.72-1,3.46,3.46,0,0,1-.82-1.14,3.58,3.58,0,0,1-.29-1.43,2.71,2.71,0,0,1,.36-1.38,3.44,3.44,0,0,1,1-1.09,4.92,4.92,0,0,1,1.53-.71,6.76,6.76,0,0,1,2-.26,10.22,10.22,0,0,1,1.89.17,8.86,8.86,0,0,1,1.71.46v-1.15a3.62,3.62,0,0,0-.94-2.63,3.42,3.42,0,0,0-2.55-1,5.06,5.06,0,0,0-1.8.36,9.15,9.15,0,0,0-1.94,1l-.42-.76A7.59,7.59,0,0,1,481.44,99a4.43,4.43,0,0,1,3.31,1.22,4.54,4.54,0,0,1,1.21,3.36v5.69c0,.37.16.56.49.56v1l-.23,0H486a.9.9,0,0,1-.71-.3,1.31,1.31,0,0,1-.32-.73v-1a5.26,5.26,0,0,1-2.05,1.61A6.64,6.64,0,0,1,480.21,111.05Zm.22-.9a5.63,5.63,0,0,0,2.38-.49,4,4,0,0,0,1.67-1.3,1.48,1.48,0,0,0,.36-.89v-2.06a8.71,8.71,0,0,0-1.68-.47,9.67,9.67,0,0,0-1.81-.16,6.54,6.54,0,0,0-1.59.19,4.08,4.08,0,0,0-1.23.53,2.35,2.35,0,0,0-.79.81,2.09,2.09,0,0,0-.28,1.07,2.66,2.66,0,0,0,.22,1.09,2.57,2.57,0,0,0,.63.89,2.92,2.92,0,0,0,.95.58A3.2,3.2,0,0,0,480.43,110.15Z"/></g></g></svg>